<svg viewBox="0 0 800 200" width="800" height="200" xmlns="http://www.w3.org/2000/svg">
  <defs>
    <!-- Animated gradient for text -->
    <linearGradient id="cyberpunkGrad" x1="0%" y1="0%" x2="100%" y2="100%">
      <stop offset="0%" stop-color="#ff0080">
        <animate attributeName="stop-color" values="#ff0080;#00ff88;#0080ff;#ff0080" dur="3s" repeatCount="indefinite"/>
      </stop>
      <stop offset="50%" stop-color="#00ff88">
        <animate attributeName="stop-color" values="#00ff88;#0080ff;#ff0080;#00ff88" dur="3s" repeatCount="indefinite"/>
      </stop>
      <stop offset="100%" stop-color="#0080ff">
        <animate attributeName="stop-color" values="#0080ff;#ff0080;#00ff88;#0080ff" dur="3s" repeatCount="indefinite"/>
      </stop>
    </linearGradient>
    
    <!-- Glow effect -->
    <filter id="glow" x="-50%" y="-50%" width="200%" height="200%">
      <feDropShadow dx="0" dy="0" stdDeviation="3" flood-color="#ff00ff" flood-opacity="0.7"/>
      <feDropShadow dx="0" dy="0" stdDeviation="6" flood-color="#00ffff" flood-opacity="0.5"/>
    </filter>
    
    <!-- Realistic cloud filters -->
    <filter id="cloudFilter1" x="0%" y="0%" width="100%" height="100%">
      <feTurbulence type="fractalNoise" baseFrequency="0.008" numOctaves="4" seed="2">
        <animate attributeName="baseFrequency" dur="25s" values="0.008;0.012;0.008" repeatCount="indefinite"/>
      </feTurbulence>
      <feDisplacementMap in="SourceGraphic" scale="15"/>
    </filter>
    
    <filter id="cloudFilter2" x="0%" y="0%" width="100%" height="100%">
      <feTurbulence type="fractalNoise" baseFrequency="0.01" numOctaves="3" seed="5">
        <animate attributeName="baseFrequency" dur="20s" values="0.01;0.015;0.01" repeatCount="indefinite"/>
      </feTurbulence>
      <feDisplacementMap in="SourceGraphic" scale="12"/>
    </filter>
    
    <filter id="cloudFilter3" x="0%" y="0%" width="100%" height="100%">
      <feTurbulence type="fractalNoise" baseFrequency="0.006" numOctaves="5" seed="8">
        <animate attributeName="baseFrequency" dur="30s" values="0.006;0.01;0.006" repeatCount="indefinite"/>
      </feTurbulence>
      <feDisplacementMap in="SourceGraphic" scale="18"/>
    </filter>
    
    <!-- Realistic cloud shapes -->
    <path id="cloud1" d="M 0,15 C 0,6 6,0 15,0 C 20,0 25,2 28,5 C 32,2 37,0 43,0 C 52,0 58,6 58,15 C 58,18 57,20 55,22 C 60,24 63,28 63,33 C 63,40 58,45 51,45 L 12,45 C 5,45 0,40 0,33 C 0,26 0,21 0,15 Z" fill="white" opacity="0.4" filter="url(#cloudFilter1)"/>
    
    <path id="cloud2" d="M 0,20 C 0,9 9,0 20,0 C 25,0 30,2 33,5 C 38,1 44,0 50,0 C 61,0 70,9 70,20 C 70,23 69,26 67,28 C 73,30 77,35 77,41 C 77,50 70,57 61,57 L 16,57 C 7,57 0,50 0,41 C 0,32 0,26 0,20 Z" fill="black" opacity="0.25" filter="url(#cloudFilter2)"/>
    
    <path id="cloud3" d="M 0,12 C 0,5 5,0 12,0 C 16,0 20,2 22,4 C 25,1 29,0 34,0 C 41,0 46,5 46,12 C 46,15 45,17 44,19 C 48,20 50,24 50,28 C 50,33 46,37 41,37 L 9,37 C 4,37 0,33 0,28 C 0,23 0,18 0,12 Z" fill="white" opacity="0.3" filter="url(#cloudFilter3)"/>
    
    <path id="cloud4" d="M 0,25 C 0,11 11,0 25,0 C 31,0 37,3 41,7 C 46,2 53,0 60,0 C 74,0 85,11 85,25 C 85,29 84,32 82,35 C 89,37 94,43 94,50 C 94,61 85,70 74,70 L 21,70 C 10,70 0,61 0,50 C 0,39 0,32 0,25 Z" fill="black" opacity="0.2" filter="url(#cloudFilter1)"/>
  </defs>
  

  
  <!-- Animated realistic clouds moving across the background -->
  <use href="#cloud1" transform="translate(100, 40)">
    <animateTransform attributeName="transform" type="translate" values="100,40; 900,40; 100,40" dur="20s" repeatCount="indefinite"/>
  </use>
  
  <use href="#cloud2" transform="translate(-120, 70)">
    <animateTransform attributeName="transform" type="translate" values="-120,70; 800,70; -120,70" dur="25s" repeatCount="indefinite"/>
  </use>
  
  <use href="#cloud3" transform="translate(250, 110)">
    <animateTransform attributeName="transform" type="translate" values="250,110; 1000,110; 250,110" dur="18s" repeatCount="indefinite"/>
  </use>
  
  <use href="#cloud4" transform="translate(-180, 20)">
    <animateTransform attributeName="transform" type="translate" values="-180,20; 850,20; -180,20" dur="30s" repeatCount="indefinite"/>
  </use>
  
  <use href="#cloud1" transform="translate(400, 130)">
    <animateTransform attributeName="transform" type="translate" values="400,130; 1200,130; 400,130" dur="22s" repeatCount="indefinite"/>
  </use>
  
  <use href="#cloud2" transform="translate(-90, 150)">
    <animateTransform attributeName="transform" type="translate" values="-90,150; 720,150; -90,150" dur="16s" repeatCount="indefinite"/>
  </use>
  
  <use href="#cloud3" transform="translate(600, 60)">
    <animateTransform attributeName="transform" type="translate" values="600,60; 1400,60; 600,60" dur="24s" repeatCount="indefinite"/>
  </use>
  
  <use href="#cloud4" transform="translate(300, 90)">
    <animateTransform attributeName="transform" type="translate" values="300,90; 1100,90; 300,90" dur="28s" repeatCount="indefinite"/>
  </use>
  
  <!-- Main title -->
  <text x="400" y="80" text-anchor="middle" fill="white" font-family="'Courier New', monospace" font-size="32" font-weight="bold" filter="url(#glow)">
    THANKS FOR VISITING!
    <animate attributeName="opacity" values="0.8;1;0.8" dur="3s" repeatCount="indefinite"/>
  </text>
  
  <!-- Star symbol with animation -->
  <text x="400" y="120" text-anchor="middle" fill="#ffff00" font-family="'Courier New', monospace" font-size="24" font-weight="bold">
    ⭐
    <animate attributeName="opacity" values="0.5;1;0.5" dur="2s" repeatCount="indefinite"/>
    <animateTransform attributeName="transform" type="scale" values="1;1.2;1" dur="2s" repeatCount="indefinite"/>
  </text>
  
  <!-- Subtitle -->
  <text x="400" y="150" text-anchor="middle" fill="#00ff88" font-family="'Courier New', monospace" font-size="18" font-weight="bold">
    STAR MY REPOS IF YOU LIKE THEM!
    <animate attributeName="opacity" values="0.3;0.8;0.3" dur="4s" repeatCount="indefinite"/>
  </text>
  
  <!-- Animated corner elements -->
  <circle cx="50" cy="50" r="3" fill="#00ffff">
    <animate attributeName="opacity" values="0;1;0" dur="1.5s" repeatCount="indefinite"/>
  </circle>
  <circle cx="750" cy="50" r="3" fill="#ff00ff">
    <animate attributeName="opacity" values="0;1;0" dur="1.5s" begin="0.5s" repeatCount="indefinite"/>
  </circle>
  <circle cx="50" cy="150" r="3" fill="#ffff00">
    <animate attributeName="opacity" values="0;1;0" dur="1.5s" begin="1s" repeatCount="indefinite"/>
  </circle>
  <circle cx="750" cy="150" r="3" fill="#ff0080">
    <animate attributeName="opacity" values="0;1;0" dur="1.5s" begin="1.5s" repeatCount="indefinite"/>
  </circle>
  
  <!-- Additional decorative elements -->
  <rect x="100" y="180" width="600" height="2" fill="url(#cyberpunkGrad)" opacity="0.6">
    <animate attributeName="opacity" values="0.6;1;0.6" dur="3s" repeatCount="indefinite"/>
  </rect>
  
  <!-- Animated side elements -->
  <polygon points="20,100 40,90 40,110" fill="#ff0080" opacity="0.7">
    <animate attributeName="opacity" values="0.7;1;0.7" dur="2s" repeatCount="indefinite"/>
  </polygon>
  
  <polygon points="780,100 760,90 760,110" fill="#00ff88" opacity="0.7">
    <animate attributeName="opacity" values="0.7;1;0.7" dur="2s" begin="1s" repeatCount="indefinite"/>
  </polygon>
</svg>